# xmcd
# Copyright (C) 1995-1998 Ti Kan
#
# Track frame offsets:
#       150
#       12847
#       27321
#       46838
#       63996
#       87026
#       107078
#       125559
#       139340
#       155698
#       172757
#       184910
#
# Disc length: 2680 seconds
#
# Revision: 0
# Processed by: cddbd v1.5.2PL0 Copyright (c) Steve Scherf et al.
# Submitted via: CD-Import v1.0
#
DISCID=980a760c
DTITLE=La Oreja De Van Gogh - Dile Al Sol
DYEAR=1998
DGENRE=
TTITLE0=El 28
TTITLE1=Cuéntame Al Oído
TTITLE2=Pesadilla
TTITLE3=La Estrella Y La Luna
TTITLE4=Viejo Cuento
TTITLE5=Dos Cristales
TTITLE6=Lloran Piedras
TTITLE7=Qué Puedo Decir
TTITLE8=Dile Al Sol
TTITLE9=El Libro
TTITLE10=La Carta
TTITLE11=Soñaré
EXTD=
EXTT0=
EXTT1=
EXTT2=
EXTT3=
EXTT4=
EXTT5=
EXTT6=
EXTT7=
EXTT8=
EXTT9=
EXTT10=
EXTT11=
PLAYORDER=
